# xmcd CD database file
#
# Track frame offsets:
#	150
#	19347
#	35695
#	56530
#	70236
#	89309
#	109033
#	125096
#	150910
#	164854
#	184808
#	206651
#
# Disc length: 3039 seconds
#
# Revision: 1
# Processed by: cddbd v1.5.1PL2 Copyright (c) Steve Scherf et al.
# Submitted via: CDex 1.51
#
DISCID=a90bdd0c
DTITLE=ema lou harris - all the road running
DYEAR=2006
DGENRE=Country
TTITLE0=all the road running
TTITLE1=all the road running
TTITLE2=all the road running
TTITLE3=all the road running
TTITLE4=all the road running
TTITLE5=all the road running
TTITLE6=all the road running
TTITLE7=all the road running
TTITLE8=all the road running
TTITLE9=all the road running
TTITLE10=all the road running
TTITLE11=all the road running
EXTD=YEAR: 2006
EXTT0=
EXTT1=
EXTT2=
EXTT3=
EXTT4=
EXTT5=
EXTT6=
EXTT7=
EXTT8=
EXTT9=
EXTT10=
EXTT11=
PLAYORDER=
